# xmcd
#
# Track frame offsets:
# 150
# 24893
# 39446
# 62702
# 82096
# 98846
# 117414
# 139967
# 156740
#
# Disc length: 2283 seconds
#
#
# Revision: 0
# Processed by: cddbd v1.5PL3 Copyright (c) Steve Scherf et al.
# Submitted via: FreeRIP 2.53 
#
DISCID=7908e909
DTITLE=Wally On the Window - Wally On the Window
DYEAR=1997
DGENRE=
TTITLE0=Save Me
TTITLE1=Soul Suburban Shakedown
TTITLE2=Screaming Down the Wind
TTITLE3=Rhythm Descendant
TTITLE4=Fire With You
TTITLE5=Please Mama
TTITLE6=Shady Shaman
TTITLE7=Crazy Shoes
TTITLE8=Shuffle Me
EXTD=Songs composed at Taggerty and \nrecorded after lunch on a Sunday \nsomtime in 1997/98.
EXTT0=(Dillon/Wayman/Talia)
EXTT1=(Dillon/Talia)
EXTT2=(Dillon/Talia)
EXTT3=(Dickens/Dillon)
EXTT4=(Paix)
EXTT5=(All the Wallys)
EXTT6=(Dillon/Talia)
EXTT7=(Dillon/Talia)
EXTT8=(Dillon/Talia)
PLAYORDER=
